<svg xmlns="http://www.w3.org/2000/svg" width="295" height="339" fill="none"><path fill="#5f0041" d="M49.2 96.9a52.4 52.4 0 0 1-28.28-15.46c-7.63-8.12-11.94-18.13-12-28.07V2.87h82v50.5c-.11 10-4.37 19.95-12 28.07A52.2 52.2 0 0 1 50.65 96.9l-.72.1z" clip-path="url(#a)" data-source="https://football-logos.cc" transform="translate(-30.6 -8.97)scale(3.5736)"/><g fill="#fff" data-source="https://football-logos.cc"><path d="M11.47 5.41v47.96c.11 9.34 4.14 18.67 11.33 26.35a50 50 0 0 0 26.9 14.75l.22.06.22-.06a49.7 49.7 0 0 0 26.91-14.75c7.18-7.68 11.22-17.01 11.33-26.4V5.41zm74.36 47.9c-.16 17.85-15.96 34.76-35.9 38.63-20-3.82-35.75-20.78-35.92-38.57V7.96H85.9v45.36z" clip-path="url(#b)" transform="translate(-30.6 -8.97)scale(3.5736)"/><path d="M27.44 69.17c.27-.05.44-.1.55-.39.1-.27.1-.77-.6-1.05l-1.56-.6-1.1 2.81 1.6.61c.5.22 1.1.11 1.33-.44.16-.5 0-.77-.22-.94m-.61.44c-.11.22-.28.22-.44.11l-.5-.22.22-.5.55.23q.25.14.17.38m.27-1.05c-.05.17-.22.17-.38.11l-.44-.16.16-.44.44.16q.32.16.22.33" clip-path="url(#c)" transform="translate(-30.6 -8.97)scale(3.5736)"/><path d="m29.54 68.56-.83-.38-.78 1.65q-.5 1.15.72 1.72c.83.38 1.44.22 1.77-.56l.77-1.65-.83-.39-.71 1.5c-.11.27-.28.6-.72.43-.39-.16-.22-.55-.11-.82z" clip-path="url(#d)" transform="translate(-30.6 -8.97)scale(3.5736)"/><path d="m30.86 72.65.55-.94.45.22c.33.17.16.45.05.72-.05.17-.1.28-.16.44l.82.45c0-.17.17-.5.22-.61.17-.33.17-.67 0-.89.34.06.61-.16.78-.44.27-.5.05-1-.44-1.21l-1.55-.89-1.5 2.6zm1.16-1.99.39.22c.33.17.33.34.22.5-.11.22-.33.17-.5.06l-.44-.22z" clip-path="url(#e)" transform="translate(-30.6 -8.97)scale(3.5736)"/><path d="m33.3 74.2 1.04-1.27-.33 1.82.72.6 1.88-2.37-.67-.55-1.04 1.27.33-1.82-.72-.6-1.93 2.37z" clip-path="url(#f)" transform="translate(-30.6 -8.97)scale(3.5736)"/><path d="m36.77 76.96.5-.6-1.05-.78 1.38-1.82-.77-.56L35 75.58z" clip-path="url(#g)" transform="translate(-30.6 -8.97)scale(3.5736)"/><path d="m39.15 78.62.44-.66-1.38-.89.22-.33 1.22.77.38-.55-1.16-.83.17-.27 1.32.82.28-.33v1.83l-.55.94.77.5.55-1 1.88-1.16-.88-.5-1 .72.11-1.22-.71-.38-2.1-1.38-1.66 2.48z" clip-path="url(#h)" transform="translate(-30.6 -8.97)scale(3.5736)"/><path d="m44.01 81 .39-1.11 1.16.39.22-.67-1.16-.38.16-.4 1.33.5.22-.71-2.15-.78-1.05 2.82z" clip-path="url(#i)" transform="translate(-30.6 -8.97)scale(3.5736)"/><path d="M45.95 80.06c-.17.88.27 1.65 1.21 1.82.88.16 1.6-.33 1.82-1.27.17-.89-.27-1.66-1.21-1.83-.94-.16-1.66.4-1.83 1.28m.89.22c.1-.67.5-.72.77-.72.22.05.56.27.44.94-.1.66-.5.71-.77.71-.22-.05-.55-.27-.44-.93" clip-path="url(#j)" transform="translate(-30.6 -8.97)scale(3.5736)"/><path d="M50.59 82.32c.94 0 1.54-.6 1.54-1.55 0-.94-.6-1.6-1.49-1.6-.94 0-1.55.6-1.55 1.55-.05.88.56 1.54 1.5 1.6m.05-2.43c.22 0 .6.16.6.83s-.38.83-.6.83-.6-.17-.6-.83.32-.83.6-.83" clip-path="url(#k)" transform="translate(-30.6 -8.97)scale(3.5736)"/><path d="m52.96 79.83.39 2.27.88-.17-.33-2.2.83-.17-.11-.78-2.6.45.11.77z" clip-path="url(#l)" transform="translate(-30.6 -8.97)scale(3.5736)"/><path d="M57.33 81.05c.5-.17.88-.66.66-1.22-.17-.44-.44-.55-.77-.55.16-.16.27-.39.16-.66-.1-.28-.39-.66-1.16-.39l-1.55.55 1 2.82zm-.22-1c.05.23-.06.34-.23.4l-.5.16-.16-.55.55-.23c.11 0 .28.06.34.22m-.83-1.1c.16-.06.33-.06.38.11s-.05.28-.22.33l-.44.17-.17-.45z" clip-path="url(#m)" transform="translate(-30.6 -8.97)scale(3.5736)"/><path d="m59.15 80.28-.06-.45.83-.44.33.33.83-.44-2.37-2.15-.83.44.44 3.2zm-.39-2.1.67.71-.5.28z" clip-path="url(#n)" transform="translate(-30.6 -8.97)scale(3.5736)"/><path d="m63.07 77.85-.38-.61-1.16.72-1.22-1.88-.77.5 1.65 2.54z" clip-path="url(#o)" transform="translate(-30.6 -8.97)scale(3.5736)"/><path d="m65.12 76.35-.45-.66-1.05.83-1.38-1.82-.71.55 1.82 2.43z" clip-path="url(#p)" transform="translate(-30.6 -8.97)scale(3.5736)"/><path d="M67.38 74.64c.66-.55.66-1.38.28-1.82l-.72.55c.1.28.16.5-.06.72-.33.28-.71 0-.94-.28-.27-.33-.38-.72-.05-1 .28-.21.55-.05.66.06l.72-.55q-.83-.84-1.82-.1c-.72.54-.83 1.43-.22 2.2.55.6 1.43.83 2.15.22" clip-path="url(#q)" transform="translate(-30.6 -8.97)scale(3.5736)"/><path d="m70.36 72.21-.5-.6-1.04.82-1.33-1.82-.77.55 1.82 2.43z" clip-path="url(#r)" transform="translate(-30.6 -8.97)scale(3.5736)"/><path d="M71.64 71.5c.77-.5.99-1.06.55-1.78l-.94-1.6-.77.5.82 1.44c.17.27.34.6 0 .82-.38.23-.6-.1-.71-.38l-.83-1.44-.78.5.94 1.6c.33.66.94.77 1.72.33" clip-path="url(#s)" transform="translate(-30.6 -8.97)scale(3.5736)"/><path d="M74.5 70.11c.5-.17.9-.66.67-1.22-.17-.44-.44-.55-.77-.55.16-.16.27-.39.16-.66-.1-.28-.44-.66-1.16-.39l-1.54.55 1 2.82zm-.21-1c.05.23-.06.34-.22.4l-.5.16-.17-.55.55-.23q.25-.01.34.22m-.83-1.1c.16-.06.33-.06.39.11s-.06.28-.23.33l-.44.17-.16-.45z" clip-path="url(#t)" transform="translate(-30.6 -8.97)scale(3.5736)"/><path d="m79.1 63.43-.17-.17h-.06c1.66-2.87 1.16-5.58 1.16-5.75-.05-.22-.16-.71-.66-1.16q-.92-.84-2.93-.6c-1.43.16-2.48.66-2.87 1.43l-.06.06a2.4 2.4 0 0 0-.22 1.27c.06.44.22 1 .33 1.43-.82.11-1.6.23-2.32.5-.71.28-1.1.6-1.21 1.05a.5.5 0 0 0 0 .39s-.17 2.37.1 4.58a21 21 0 0 0-5.46 3.43c-7.63 7.07-13.7 7.3-14.42 7.3h-.06c-.05 0-6.4.1-14.42-7.3 0 0-1.93-1.66-5.25-3.15.34-2.32.17-5.14.12-5.3-.11-.45-.5-.83-1.22-1.05a10 10 0 0 0-2.32-.5c.17-.44.28-1 .33-1.44.06-.6-.05-1-.22-1.27 0-.05-.06-.05-.06-.1-.44-.78-1.43-1.34-2.87-1.45-1.32-.1-2.32.06-2.93.61-.5.44-.6.94-.66 1.16 0 .11-.5 2.65 1.38 5.58q-.01-.02-.1.06s-.06.05-.12.05a.4.4 0 0 0-.22.22c-.17.17-.39.5-.55.89-.39.88-.61 2.76 1.1 6.68l.06.11.1.06c.06 0 4.81 1.32 9.9 5.3 3.59 2.82 7.9 5.86 12.48 7.19l.4.1c.6.17 1.26.34 1.92.4l.45.05.27.05h.22q1.08.1 2.16.11.55.01 1.1-.05a19 19 0 0 0 2.93-.39q1.1-.23 1.44-.38c4.2-1.22 8.62-3.82 12.43-7.19 5.03-4.47 9.78-5.25 9.83-5.25h.17l.05-.16c1.39-3.7 1.55-5.58 1.39-6.52.05-.28-.28-.66-.45-.88m-5.02-6.08q.58-.93 2.43-1.1c.22 0 .44-.06.66-.06q1.25-.02 1.82.55c.39.33.44.72.5.83v.28c-.17.99-.94 1.43-2.27 1.65l-.38-1.77-.28.06c-1.99.55-2.43.22-2.54.11-.17-.17.06-.55.06-.55M74 58.56q.76.32 2.43-.1l.28 1.2q-.67.09-1.5.17h-.05a1 1 0 0 0-.33.06c-.11 0-.28 0-.39.05h-.22q-.01-.09-.1-.27l-.17-.61a2 2 0 0 1-.11-.55c.05 0 .1.05.16.05m-3.37 3.1c.06-.28.39-.5.88-.72.72-.28 1.5-.39 2.32-.5.11 0 .17 0 .28-.05.33-.06.6-.06.94-.11h.39q.16.02.33-.06.84-.06 1.6-.22a4 4 0 0 0 1.22-.33q.4-.15.71-.39l.4-.33v.33a8 8 0 0 1-1.11 3.65 2 2 0 0 0-.67-.22c-.77-.22-2.15-.28-3.48-.33-.94-.06-1.93-.06-2.65-.17-.66-.11-.88-.22-.94-.28-.22-.05-.22-.16-.22-.27m-.05.94v-.11c.38.16 1.05.27 1.87.33.4 0 .78.05 1.22.05h.55c1.27.06 2.6.11 3.37.28q.32.07.55.16c.11.06.17.06.22.12.28.16.28.27.28.27 0 .11-.1.28-.44.44-.17.11-.39.17-.66.28q-.66.24-1.88.39c-1.88.27-3.54.83-4.97 1.38-.11-1.33-.11-2.76-.11-3.6m-43.54-4.14q-.02.24-.11.55l-.17.61c-.05.11-.05.17-.1.28h-.23c-.1 0-.27 0-.39-.06q-.16.01-.33-.05h-.05l-1.5-.17.28-1.21c1.16.27 1.94.33 2.43.1q.17.01.17-.05m-5.2-1.77c.5-.44 1.39-.6 2.55-.5 1.21.12 2.1.5 2.43 1.11.05.06.16.44.05.6-.1.12-.55.45-2.54-.1l-.27-.06-.4 1.77c-1.32-.22-2.15-.66-2.26-1.66v-.27c0-.11.06-.56.45-.89m-.45 2.66c0-.11-.05-.23-.05-.34q.16.18.33.28.31.24.72.39c.33.16.77.27 1.16.33q.76.14 1.6.22a1 1 0 0 1 .33.05h.39c.33 0 .6.06.94.11a.5.5 0 0 1 .28.06c.82.11 1.6.22 2.32.5.5.22.83.44.88.72.06.1 0 .22-.06.33a3 3 0 0 1-.94.27c-.71.11-1.7.11-2.65.17-1.32.05-2.7.11-3.48.33l-.44.17a9 9 0 0 1-1.33-3.6m.83 4.48v-.1a1 1 0 0 1 .28-.23c.05-.06.16-.06.22-.11s.17-.06.28-.11c.05 0 .16-.06.27-.06.72-.22 2.05-.27 3.37-.27q.42.02.83-.06c.44 0 .83-.05 1.16-.05a5 5 0 0 0 1.66-.34v.11c0 .89.05 2.5-.17 3.98a24 24 0 0 0-5.19-1.65 12 12 0 0 1-1.33-.34c-.1-.05-.22-.05-.33-.1-1.05-.4-1.05-.61-1.05-.67m55.58 6.85c-.88.17-5.25 1.22-9.94 5.36-3.76 3.32-8.12 5.86-12.27 7.07-.22.06-.72.22-1.38.33q-1.41.32-2.82.4c-1.05.05-2.15.05-3.2-.12h-.22c-.06 0-.17 0-.22-.06l-.45-.05a7 7 0 0 1-1.49-.33l-.33-.11c-4.64-1.27-9-4.37-12.65-7.19-4.7-3.64-9.17-5.08-9.95-5.35-1.65-3.98-1.32-5.64-.99-6.25 0-.05.06-.05.06-.1q.13.15.44.32c.1.06.27.17.44.23q.68.25 2.1.6 1.82.43 3.31.94c.4.17.78.28 1.16.44q.5.18 1 .45a24 24 0 0 1 5.2 3.09c8.11 7.51 14.47 7.46 14.74 7.46h.06c.72 0 6.96-.22 14.75-7.4 0 0 1.88-1.83 5.2-3.32.05-.05.16-.05.27-.11q.4-.17.88-.33 1.9-.75 4.37-1.16a10 10 0 0 0 2.37-.61c.17-.05.33-.16.44-.22.23-.11.34-.22.45-.33 0 .05.05.1.05.16.06.67 0 2.43-1.38 6.2z" clip-path="url(#u)" transform="translate(-30.6 -8.97)scale(3.5736)"/><path d="M49.87 64.3c.33-.6-.22-1.15-.22-1.04.05.17-.28.22-.28.22-.33.06-1.05-.17-1.05-.17-2.43-.44-1.66 2.6-1.5 3.26.12.4-.16 1.27-1.54 1.16-1.05-.1-1.1.45-1.1.45.5-.39.83-.11.83-.11-.56.05-.72.66-.72.66.55-.5 1.05-.17 1.05-.17-.44.11-.44.72-.44.72.33-.44.66-.22.66-.22s.66.28.83-.44c.05-.22.44.1.44.1a1 1 0 0 1 .1-.65c.06-.11.5.33.5.33.23-.22.12-.5.12-.56 0-.1-.17-.5-.06-.71.33-.45.77.33.77.33.12-.61-.5-1.77-.55-1.83-.27-.33-.38-1.1.83-.16.44.39 1 .16 1 .16-.17-.6.33-1.32.33-1.32" clip-path="url(#v)" transform="translate(-30.6 -8.97)scale(3.5736)"/><path d="M48.32 57.57s.22.28 0 .66c0 0 .66.17 1-.16 0 0-.17.44.1.94 0 0 .5-.28.61-.61 0 0 .22.05.39.44.16.39.33.44.33.44s0-.55.39-.66c0 0 .44.55 1.05.33 0 0-1-.55 0-.77 0 0-.72-.22-.67-.56 0 0-.38.61-1.21.45 0 0 .22-.28.1-.61 0 0-.65.39-1.2.1 0 0 0-.6.38-.82 0 0-.88-.11-1.16.17 0 0-.17-.4.11-.72 0 0-.83.27-1.05 1.6-.05.06.55.11.83-.22" clip-path="url(#w)" transform="translate(-30.6 -8.97)scale(3.5736)"/><path d="M42.85 60.88s-.77.61-.17 1.27c0 0 .06-.82.56-.6 0 0-.83.6 0 1.1 0 0-.06-.83.6-.66.4.1.67-.39.67-.39s.44-.27.72.11c.27.45.66.5.71.56 0 0-.27-.4 0-.56 0 0 .45.45.78.45 0 0-.39-.45 0-.5 0 0 .22 0 .27.22.06.27.72.38.78.38 0 0-.39-.33-.17-.66v-.05c.22-.33.44-.22.44-.22.83-.22.78-1.1.78-1.33q.09.02.1.11c.12.28.17.94-.76 1.5 0 0 .05.77 1.32 1.32 0 0-.16-1 .6.44 0 0 .29.55-.05 1.1-.27.56-.6 1.5.45 2.1 1.05.67 1.7 1.39 1.21 3.27 0 0-.33.66-1 .5s-.93-.45-1.48.27c0 0 .66-.33 1.05.1 0 0-.78-.21-1.05.78 0 0 .77-.44 1.1-.1 0 0-.44.1-.44.65 0 0 .44-.33.77-.16.55.22.66-.11.83-.39.17-.27.55.11 1.1 0 0 0-.77-.6-.33-.88.28-.17.78.16 1-.11 0 0-1-.39-.5-1.05.22-.28.6.05.83-.11 0 0-.66-.22-.55-.83.05-.39.22-.33.33-.28.1.06.39.11.55 0 0 0-.27-.05-.33-.38-.06-.34 0-.78-.39-1.05-.22-.17-.38-.17-.38-.72 0-.67.27-.72.44-.78.16 0 .55-.05.77-.22 0 0 1.44-.88.66-2.7s-1.16-1.94-1.05-3.37.45-2.1.78-2.6c.22-.39.72-.66 1.05-.72 0 0 .83-.16.72.83 0 0 0 .28-.5.66-.5.44-.66.89-.66.89s.55-.4.66-.28.05.28-.17.55c-.22.22-.5.78-.44 1.22 0 0 .17-.28.39-.28 0 0-.11.89.44 1.22 0 0-.17-1 .22-1.55.28-.39.94-1.66.55-2.54 0 0 0-1.16-.71-1.27 0 0 .1.22.05.16s-2.27-.22-2.7 3.26c0 .17-.12.67-.12.67s-.05.88-.6.22c0 0-.06.72.66 1.16.72.5-.67.44-.94-.06 0 0 0 .56.72.89.71.27.6.66-.56.38 0 0 .34.5 1.27.5.95 0 1 1.44.67 1.77-.5.44-.78.39-1 .33-.27-.05-.38 0-.38 0s-.56-.55-.67-1.05c-.05-.39-.83-1.05-.83-1.05s-.44-.55-.27-1.66.22-1.43.16-1.6c0 0-.27-.05-.38-.22 0 0-.17.44-.17.72 0 0-.55-.11-.77-.55-.17-.45-.33-.34-.33-.34s-.33.45-.72.56c0 0-.17-.06-.17-.5v-.44s-.6.16-1 0c0 0 .12-.28 0-.44 0 0-.27.16-.82.05 0 0-.11-.5.39-1.27 0 0 .05-.22-.22-.72-.28-.44-.72-1.43-.34-2.1.28-.44.17-1.05-.22-1.27-.33-.22-.55-.22-1.05-.05 0 0 .67-.06.67.5 0 0-.72-.72-1.33 0 0 0 .83-.12.66.55 0 0-.6-.83-1.21.16 0 0 .83-.1.83.6-.06.5.6.67.6.67s.17 1.44-.66 1.38c0 0 .5.34.72.28 0 0 .05.55-.44.6 0 0 .27.28.66.28 0 0 .06.17-.17.28-.27.17-.27.6-.27.66 0 0 .27-.22.72 0s1 .06 1.1 0c0 0 .11-.05.22-.05q-.06.07-.22.33l-.6.77c-.61.61-1.66 1.22-3.21.5-.39-.17-1.05-.22-1.33.06-.27.27-.38.6-.1.99.1.33.1-.28.6-.17" clip-path="url(#x)" transform="translate(-30.6 -8.97)scale(3.5736)"/><path d="M50.09 56.63c-.5.22-.44.72-.44.72.77-.06.94-.39.94-.39.44.11.16.72.1.77h.12c.16 0 .5-.16.82-.6 0 .1.11.83 1.22.77 0 0-.72-.33-.55-.77v-.06c.44.44 1.05-.1 1.05-.1-.61 0-.67-.34-.67-.5.72.44 1.11-.28 1-.4 0 0-1.27.5-.22-1.76.1-.28.5-.72.1-1.1-.38-.4-.54-1.05-.1-1.39 0 0-.5-.22-1.16.22-.33.23-.61.11-.61.11s-.55-.27-1.05-.05a1 1 0 0 0-.55.5c-.28-.11-.77.22-.83.22s0 .22-.06.33-.1.5.4.5c.49-.06.82-.17.82-.17s.11.11.17.39c.05.33.22.83-.45.88l.17.17c.17.1.72.1.77-.22.11-.28.28-.34.28-.34s.28.78-.83.89-1.77.5-1.99 1.33c1.33-.34 1.55.05 1.55.05m1.05-3.81q-.31.24-.72-.17c.28-.33.66-.44 1.22-.05 0 0-.28.05-.5.22" clip-path="url(#y)" transform="translate(-30.6 -8.97)scale(3.5736)"/><path d="m39.32 45.25-1.77-2.98-1.83 3.03 1.83 3.43z" clip-path="url(#z)" transform="translate(-30.6 -8.97)scale(3.5736)"/><path d="m64.95 45.25-1.82-2.98-1.83 3.03 1.88 3.43z" clip-path="url(#A)" transform="translate(-30.6 -8.97)scale(3.5736)"/><path d="M49.98 75.03h.22c10.39-2.05 18.62-11.38 18.73-21.27V29.28h-8.79c.56-.22 1-.77 1-1.43 0-.83-.67-1.55-1.55-1.55h-2.15c-.89-.11-1.05-1-1.05-1-1.05 1.1-2.1-.6-2.1-.6l-1.83.6-.44-.83a3.5 3.5 0 0 1 1.44-1.6c-.22-.5-.33-.94-.33-1.1.05-.06.44-.22.83-.39l.5-.16h.27l-.22-.23c.05 0 .16.11.22.11q.16.1.33.11c.17.01.28 0 .22-.1.06 0 .17.05.22.05h.22c.06-.06.11-.06.17-.11l.17-.11c0-.06.05-.06.05-.11s0-.11-.05-.11c-.12-.11-.23-.11-.34-.17l-.38-.1c-.11-.06-.17-.06-.28-.12-.28-.1 0 0 .11 0h.28c.1 0 .16-.05.27-.05l.28-.11s-.28.1-.88-.34c-.22-.16-.34-.38-.5-.55q-.48-.6-1.05-1.1c-.57-.5-.77-.67-1.22-.89a3 3 0 0 0-1.32-.38h-.06c0-.06-.1-.94.39-2.05.28-.6.33-1.21.05-1.71a1.5 1.5 0 0 0-.93-.72c-.06 0-.72-.1-1.5.44l-.66.33a7 7 0 0 1 2.38-1.6v-.05c-.06 0-1 .05-1.6.44.1-.22.21-.6.1-1.22v-.05h-.05s-1.44.33-1.44 2.32c0 0 0 .27-.1.6a1 1 0 0 0-.23.23q.09-.07.17-.06c-.06.11-.11.28-.22.39a3.4 3.4 0 0 0-.61 1.88v.05l.05-.05s.56-.39.67-.89c.05-.22.22-.38.27-.5.06.23.11.73.11.84v.05h.06c.1-.11.55-.72.1-1.55q-.06-.17-.05-.44c.72-.16 1.22.11 1.44.22q.18.15.28.39.16.51-.17 1.1c-.16.4-.39.67-.55.94-.44.72-.77 1.22-.66 2.32a2.6 2.6 0 0 0 1.49 2.1c.27.28.44.72.55.94.17.33 0 .28 0 .28-.94.05-1.27-.44-1.93-.72a2 2 0 0 0-.5-.11 2 2 0 0 0-1.44 0c-.94.28-1.54 1.05-1.32 1.71a.8.8 0 0 0 .5.56q.32.16.82.16.35-.01.78-.1c.77-.29 1.32-.84 1.38-1.4.33.12 1.27.84 1.99 1.11.77.34 1.05-.55 1.05-.55.22.39-.34 1.66-.67 2.38l-.33.22-.16-.83-.78 1.05a7 7 0 0 1-1.1-1.1c-.11 1.04-.44 1.32-.56 1.38l-1.82-1.22c0 .83-.83 1.33-1.27 1.33l-1.21-.61a.86.86 0 0 1-.83 1.05h-2.1c-.83 0-1.55.66-1.55 1.55 0 .66.39 1.21 1 1.43h-9.01v24.48c.1 10 8.34 19.33 18.73 21.38m8.34-48.07h.06c.99-.22 1.65.11 1.65.11q.5.27.39.61c-.05.44-.66.94-.72.66-.1-.6-.77-.88-.77-.88s-.89-.44-.6-.5m1.48 6.52c0-.05.06-.16.06-.22-.33-.6-.61-1.1-.72-1.27l-.11-.11c-.17-.22-.28-.33-.17-.39.06-.05.17 0 .28 0 0 0 .39.22.83 1 .05.05.05.1.1.22.29-.61.62-1 1-1s.72.39 1 1q.07-.18.16-.28c.44-.77.83-1 .83-1 .06-.05.17-.1.28 0 .05.12 0 .17-.17.4l-.1.1a7 7 0 0 0-.78 1.33c.05.06.05.06.1.17 1.78-.34 3.16-.28 3.27.16.1.33-.89.83-1.77 1.33.88.5 1.88 1 1.77 1.32-.17.5-1.44.56-3.2.22l-.06.4v.1l.1.17s.5.88.84 1.21c.1.11.05.17.05.17q-.01.06-.1.05c-.1 0-.17-.05-.34-.1a4 4 0 0 1-.66-.95c-.06.11-.06.28-.11.4-.28.7-.61 1.1-1.05 1.1s-.89-.56-1.1-1.44c-.28.5-.5.83-.61.88-.17.11-.28.11-.34.11s-.05 0-.1-.05c0 0-.06-.11.05-.17.33-.38.83-1.21.83-1.27 0 0 .05-.05.05-.16 0 0-.05-.39-.05-.5-1.71.33-3.04.28-3.15-.22-.11-.33.77-.89 1.71-1.38-.27-.11-.5-.28-.72-.39-.6-.33-1.05-.66-1-.88-.05-.34 1.28-.39 3.1-.06m-10.1-20.5s.21-.33.82 0c0 0-.22.44-.83 0m.33 4.48c0 2.04 1.88 2.76 1.94 2.82a.4.4 0 0 1-.11-.22c.22.1.44.22.66.27.11.06.22.06.33.11h.06a.4.4 0 0 1-.11-.22q.24.17.5.17c.05 0 .16 0 .21-.06l.11-.05c.06 0 .12-.06.17-.06 0 .06-.05.11-.05.17l-.11.1a1 1 0 0 1-.34.12q-.07.02-.16-.06-.1.07-.28.06c-.18-.01-.27 0-.38-.06s-.17-.05-.28-.1c-.55.05-2.7-.73-2.16-3m.89 8.9c1.66-.6 3.7.28 3.7.28a5 5 0 0 1 1.38.83l.22.22c.22.22.6.55.94.6.28.06-.22.61-1 .23l-.27-.22c-.77-.61-1.44-.61-1.44-.61-.72-.06-.55.39-.55.39.39.77-.6.55-1.1 0-.78-.83-1.5-1.1-1.94-1.33-.5-.17-.16-.33.06-.39m.27 11.6c.06.06.23.4-.05 1.05 0 0-.88.5-2.16.06 0-.06 0-.94-.05-1.1s-.55-.5-.55-.5c0-.06-.5-3.1-.11-4.31 0 0 0-1 .33-1.1.22-.06.16 1.04.16 1.04v1.27c-.44.34-.1.4-.1.4 1.37-.23 2.1-.29 2.42-.23h.11c.23.05.23.17.23.17s.05.27-.94.44c0 0-.56.1-.67.33s-.16.94.11 1.38c0 0 .17-.06.11-.28-.05-.22 0-.77.17-.88.17-.17 1.6-.33 1.6-.72 0 0-.16-.66.17-1.38.27-.5.6.17.55 1.05l-.05 1.66c0 .27-.17 1.16-1.11 1.32 0 0-.33.11-.39.28-.05 0 .17 0 .22.05m-1.49-4.3q.01.4-.05.55c-.22 0-.39.05-.55.05-.11-.5-.11-1.1-.11-1.1l.05-1.05c0-.06 0-.66.33-.66.28 0 .28.71.28.71s0 .78.05 1.5m1.27-.94c0-.5 0-1.16.34-1.16.22 0 .22.44.22.71v1.16c-.11.17-.17.67-.17.78q-.15-.08-.39-.06c-.05-.1 0-.94 0-1.43m-.71-1.66h.05c.44.11.39 2.7.28 3.04q-.25-.01-.5.05-.07-.15-.06-.38c0-.28 0-2 .06-2.38-.06-.27.1-.33.17-.33m-5.3-4.48c1.48-.55 3.3.28 3.3.28 1.5.66 1.72 1.38 1.72 1.38s.22.78-.6.17c-.67-.5-1.17-.39-1.17-.39-.5 0-.6 1.22-1.66.17-.71-.72-1.38-1-1.76-1.22s-.06-.27.16-.39m-4.2.5c.67-.44 1.5-.16 1.83.33.71 1.05 1.65 1.22 1.21 1.27-.28.06-1.1-.22-1.5-.55-.49-.44-1.26-.1-.7.33.05.06-.06.11-.17.11-1.05 0-1.39-.99-.67-1.49m-5.69 6.63c.17-.5 1.5-.55 3.32-.16 0-.06.05-.17.05-.22-.33-.61-.6-1.1-.72-1.28l-.1-.1c-.17-.23-.28-.34-.17-.4.05-.05.16 0 .27 0 0 0 .39.23.83 1 .06.06.06.11.11.22.28-.6.61-1 1-1s.72.4 1 1c.05-.1.1-.22.16-.27.44-.78.83-1 .83-1 .05-.05.16-.1.27 0 .06.11 0 .17-.16.39l-.11.1c-.17.17-.45.67-.78 1.34.06.05.06.05.11.16 1.77-.33 3.15-.28 3.26.17.11.33-.88.83-1.76 1.32.88.5 1.87 1 1.76 1.33-.16.5-1.43.55-3.2.22l-.06.39v.1l.11.17s.5.89.83 1.22c.11.1.06.16.06.16q-.02.08-.11.06c-.1-.02-.17-.06-.33-.11a4 4 0 0 1-.67-.94c-.05.11-.05.28-.1.39q-.41 1.08-1.06 1.1c-.65.02-.88-.55-1.1-1.44-.28.5-.5.83-.61.89-.17.1-.28.1-.33.1s-.06 0-.11-.05c0 0-.06-.1.05-.16.33-.39.83-1.22.83-1.27 0 0 .06-.06.06-.17 0 0-.06-.39-.06-.5-1.71.34-3.04.28-3.15-.22-.1-.33.78-.88 1.72-1.38-.28-.1-.5-.27-.72-.38-.83-.23-1.33-.56-1.22-.78m-2.1 23.32c-.05-.17-.05-.39-.1-.56 0-.1 0-.16-.06-.27-.06-.22-.06-.44-.11-.67v-.16c0-.22-.06-.5-.06-.72v-.06q.02-.41-.06-.82V40.6H67.6v14.1c0 .22-.05.44-.05.66 0 .1 0 .16-.06.27 0 .17-.05.34-.05.45q-.02.23-.11.55c0 .1-.06.16-.06.28-.05.27-.1.6-.22.88h-.94v-2.7h-2.49v-2.22h-2.37v-2.6H59.1v-2.31h-2.33v-2h-2.43l-.05-2.59h-2.43l-1.5-1.99-1.26 1.99h-2.71v2.43h-2.87v2.32h-2.5v2.21H38.6v2.49h-2.5v2.15h-1.77v2.27h-1.21c-.11-.06-.11-.11-.17-.22m3.48 7.68c-.05-.06-.05-.11-.1-.17a3 3 0 0 0-.34-.44s0-.06-.06-.06A23 23 0 0 1 35 62.5c0-.06-.05-.06-.05-.11q-.41-.82-.83-1.72h2.27v-2.43h2.32v-2.48h2.65v-2.49h2.43v-2.43h2.6v-2.49h2.48v-2.32h2.77v2.43h2.2v2.43h2.38v2.43h2.43v2.38h2.38v2.54h3.04v2.82H66c-.11.17-.17.39-.28.55v.06q-.4.84-.88 1.6s0 .06-.06.06l-.33.5c-.33.49-.72 1.04-1.05 1.48l-.1.11-1.11 1.33c-.06.06-.06.11-.11.11-.11.11-.22.28-.34.39l-.16.16c-.39.4-.77.72-1.16 1.1-.11.06-.17.17-.28.23-.1.11-.22.17-.33.28-.1.05-.22.16-.27.22-.17.1-.28.22-.45.33-.16.1-.27.22-.44.33-.1.06-.22.17-.28.22-.1.11-.27.17-.38.28a1 1 0 0 0-.28.16c-.16.11-.38.22-.55.34-.11.05-.17.1-.28.16q-.23.18-.55.28l-.28.16c-.16.11-.33.17-.5.28-.05.05-.16.05-.21.1-.22.12-.5.23-.72.34q-.09.08-.17.06c-.16.05-.38.16-.55.22-.06.05-.17.05-.22.1-.22.06-.39.17-.6.23-.06 0-.12.05-.17.05l-.78.28c-.05 0-.16.05-.22.05l-.6.17c-.06 0-.17.06-.23.06l-.83.16-.83-.16c-.05 0-.16-.06-.22-.06-.22-.05-.38-.1-.6-.17-.06 0-.17-.05-.22-.05-.28-.06-.5-.17-.78-.28-.05 0-.05 0-.1-.05a3 3 0 0 1-.67-.28c-.06-.05-.17-.05-.22-.1l-.56-.23c-.05-.05-.16-.05-.22-.1-.22-.12-.5-.23-.71-.34-.06-.06-.11-.06-.17-.11-.17-.11-.39-.17-.55-.28-.11-.05-.17-.1-.28-.16-.17-.11-.33-.17-.44-.28-.11-.05-.17-.11-.28-.17-.22-.1-.44-.27-.66-.38l-.28-.17c-.1-.1-.27-.16-.38-.27-.32-.27-.64-.45-.94-.72-1.6-1.47-3.55-2.93-4.7-4.53" clip-path="url(#B)" transform="translate(-30.6 -8.97)scale(3.5736)"/><path d="M40.48 36.74c0-.11.05-.28.05-.28-.33-.05-.6-.16-.94-.22q-.5.16-1 .22s0 .17.06.28c.11.06.83.28 1.83 0" clip-path="url(#C)" transform="translate(-30.6 -8.97)scale(3.5736)"/><path d="M40.25 33.2q.01-.09-.05-.1c-.17-.56-.44-.78-.66-.78s-.5.22-.67.77c0 .06-.05.11-.05.17.6-.28 1.1-.17 1.43-.06" clip-path="url(#D)" transform="translate(-30.6 -8.97)scale(3.5736)"/><path d="M38.65 37.02c.06.33.06.33.17.5.1.05.66.21 1.49 0a1 1 0 0 0 .1-.5c-.32.1-.65.1-.93.1a3 3 0 0 1-.83-.1" clip-path="url(#E)" transform="translate(-30.6 -8.97)scale(3.5736)"/><path d="M60.37 37.85a1 1 0 0 0 .22.38c.38.11.44.11.88 0 .11-.1.11-.22.22-.44-.28.06-.44.06-.66.06-.28.05-.55.05-.67 0" clip-path="url(#F)" transform="translate(-30.6 -8.97)scale(3.5736)"/><path d="M38.93 37.85a1 1 0 0 0 .22.38c.39.11.44.11.88 0 .11-.1.11-.22.22-.44-.27.06-.44.06-.66.06-.28.05-.55.05-.66 0" clip-path="url(#G)" transform="translate(-30.6 -8.97)scale(3.5736)"/><path d="M61.91 36.74c0-.11.06-.28.06-.28-.33-.05-.61-.16-.94-.22q-.5.16-1 .22s0 .17.06.28c.1.06.83.28 1.82 0" clip-path="url(#H)" transform="translate(-30.6 -8.97)scale(3.5736)"/><path d="M60.09 37.02c.05.33.05.33.16.5.11.05.67.21 1.5 0a1 1 0 0 0 .1-.5c-.33.1-.66.1-.93.1q-.5-.01-.83-.1" clip-path="url(#I)" transform="translate(-30.6 -8.97)scale(3.5736)"/><path d="M61.7 33.2q.02-.09-.06-.1c-.17-.56-.45-.78-.67-.78s-.5.22-.66.77c0 .06-.05.11-.05.17a2 2 0 0 1 1.43-.06" clip-path="url(#J)" transform="translate(-30.6 -8.97)scale(3.5736)"/></g><defs data-source="https://football-logos.cc"><clipPath id="J"><path fill="#fff" d="M6 0h87.85v100H6z"/></clipPath><clipPath id="I"><path fill="#fff" d="M6 0h87.85v100H6z"/></clipPath><clipPath id="H"><path fill="#fff" d="M6 0h87.85v100H6z"/></clipPath><clipPath id="G"><path fill="#fff" d="M6 0h87.85v100H6z"/></clipPath><clipPath id="F"><path fill="#fff" d="M6 0h87.85v100H6z"/></clipPath><clipPath id="E"><path fill="#fff" d="M6 0h87.85v100H6z"/></clipPath><clipPath id="D"><path fill="#fff" d="M6 0h87.85v100H6z"/></clipPath><clipPath id="C"><path fill="#fff" d="M6 0h87.85v100H6z"/></clipPath><clipPath id="B"><path fill="#fff" d="M6 0h87.85v100H6z"/></clipPath><clipPath id="A"><path fill="#fff" d="M6 0h87.85v100H6z"/></clipPath><clipPath id="z"><path fill="#fff" d="M6 0h87.85v100H6z"/></clipPath><clipPath id="y"><path fill="#fff" d="M6 0h87.85v100H6z"/></clipPath><clipPath id="x"><path fill="#fff" d="M6 0h87.85v100H6z"/></clipPath><clipPath id="w"><path fill="#fff" d="M6 0h87.85v100H6z"/></clipPath><clipPath id="v"><path fill="#fff" d="M6 0h87.85v100H6z"/></clipPath><clipPath id="u"><path fill="#fff" d="M6 0h87.85v100H6z"/></clipPath><clipPath id="t"><path fill="#fff" d="M6 0h87.85v100H6z"/></clipPath><clipPath id="s"><path fill="#fff" d="M6 0h87.85v100H6z"/></clipPath><clipPath id="r"><path fill="#fff" d="M6 0h87.85v100H6z"/></clipPath><clipPath id="q"><path fill="#fff" d="M6 0h87.85v100H6z"/></clipPath><clipPath id="p"><path fill="#fff" d="M6 0h87.85v100H6z"/></clipPath><clipPath id="o"><path fill="#fff" d="M6 0h87.85v100H6z"/></clipPath><clipPath id="n"><path fill="#fff" d="M6 0h87.85v100H6z"/></clipPath><clipPath id="m"><path fill="#fff" d="M6 0h87.85v100H6z"/></clipPath><clipPath id="l"><path fill="#fff" d="M6 0h87.85v100H6z"/></clipPath><clipPath id="k"><path fill="#fff" d="M6 0h87.85v100H6z"/></clipPath><clipPath id="j"><path fill="#fff" d="M6 0h87.85v100H6z"/></clipPath><clipPath id="i"><path fill="#fff" d="M6 0h87.85v100H6z"/></clipPath><clipPath id="h"><path fill="#fff" d="M6 0h87.85v100H6z"/></clipPath><clipPath id="g"><path fill="#fff" d="M6 0h87.85v100H6z"/></clipPath><clipPath id="f"><path fill="#fff" d="M6 0h87.85v100H6z"/></clipPath><clipPath id="e"><path fill="#fff" d="M6 0h87.85v100H6z"/></clipPath><clipPath id="d"><path fill="#fff" d="M6 0h87.85v100H6z"/></clipPath><clipPath id="c"><path fill="#fff" d="M6 0h87.85v100H6z"/></clipPath><clipPath id="b"><path fill="#fff" d="M6 0h87.85v100H6z"/></clipPath><clipPath id="a"><path fill="#fff" d="M6 0h87.85v100H6z"/></clipPath></defs></svg>