<svg xmlns="http://www.w3.org/2000/svg" viewBox="0 0 114.63 235.94"><path fill="#132257" d="M34.17 148.3a2.2 2.2 0 0 0-2 .8 7.4 7.4 0 0 0-1.77 5.53 4 4 0 0 0 .27 1.38 2.3 2.3 0 0 0 1.52 1.47 2.2 2.2 0 0 0 1.96-1.01 7.8 7.8 0 0 0 1.34-6.73 2 2 0 0 0-1.32-1.44m46.8 20.43a5.5 5.5 0 0 0-.48-3.91 4 4 0 0 0-2.55-1.95l-1.16-.24a105 105 0 0 1-5-1.13c-3.18-.8-5.9.66-7.4 3.9q2.32.68 4.55 1.25a15 15 0 0 0 .3-1.97.91.91 0 0 1 1.8.1 17 17 0 0 1-.33 2.3l.88.2.88.2c.26-1.28.42-2.37.42-2.39a.91.91 0 0 1 1.8.27c-.01.09-.18 1.18-.45 2.48q.92.18 1.74.32a17 17 0 0 0 .25-2 .9.9 0 0 1 1.82.09 18 18 0 0 1-.27 2.18 36 36 0 0 0 3.2.3m-16.85 2.23a5.2 5.2 0 0 0 2.86 2.74 42 42 0 0 0 7 1.37c2.89.31 5.14-1.3 6.43-4.54q-1.45-.08-3.07-.31a9 9 0 0 1-.79 1.88.91.91 0 0 1-1.58-.9 7 7 0 0 0 .55-1.27l-1.69-.31a14 14 0 0 1-.65 2 .91.91 0 1 1-1.66-.72 12 12 0 0 0 .53-1.65l-.88-.2-.93-.21a17 17 0 0 1-.59 1.63.9.9 0 1 1-1.67-.7q.29-.7.5-1.36-2.31-.6-4.7-1.29a6 6 0 0 0 .34 3.84m20.23-23.16c-1.37-3.6-5.98-6.17-12.04-7.54-11.2-2.53-25.92 1.65-35.29 9.53a9 9 0 0 1-.23 4.72 153 153 0 0 0 25.83 10.37c2.17-5 6.35-5.96 9.6-5.14 2.33.58 3.83.88 4.93 1.1l1.2.26a6 6 0 0 1 3.72 2.82 7.2 7.2 0 0 1 .74 4.82 3.3 3.3 0 0 0 1.82-.41 30 30 0 0 0-.28-20.53m-10.57 29.07a43 43 0 0 1-7.39-1.46 7 7 0 0 1-3.92-3.69 7 7 0 0 1-.69-2.83 8 8 0 0 1 .24-2.29 156 156 0 0 1-25.93-10.4 7 7 0 0 1-.83 1.2 5 5 0 0 1-1.69 1.31 37.6 37.6 0 0 0 5.77 16.12c4.18 6.45 9.86 10.87 16 12.25 2.18.5 5.02 1.1 7.57.54a30 30 0 0 0 20.9-17.2 11 11 0 0 1-1.47.14c-2.16 6.3-6.69 6.52-8.56 6.31m-43.84-26.6a8 8 0 0 1 1.16-1.89 5 5 0 0 1 1.18-1.04 27 27 0 0 1 6.83-13.28 30 30 0 0 0-11 14.7 9 9 0 0 0 1.83 1.52m-.57 1.76a17 17 0 0 1-1.82-1.44 30 30 0 0 0-1.01 9.06q.04.95.13 1.88a19 19 0 0 1 2.62-5.76 9 9 0 0 1 .08-3.74m2.4 6.84a3 3 0 0 1-1.68-1.19c-2.23 3.44-3.16 6.5-2.35 9.27A29.9 29.9 0 0 0 53.6 188.2c-11.68-3.55-20.33-15.72-21.84-29.33m14.39-141.6a20 20 0 0 0-.5-4.53s2.68-.14 2.68-3.41c0-2.7-1.8-4.54-2.28-4.54-.39 0-.48.42-1.33.42-2.05 0-2.2-2.63-2.2-2.63l.93-.01c5.89 0 11.33 1.78 11.33 14.7a117 117 0 0 1-.85 12.79 77 77 0 0 0-.66 10.51s-10.24-1.2-10.24-8.9c0-5 3.12-6.23 3.12-14.4m16.29 85.37c0 10.12-4.32 18.34-6.81 20.83-7.72 7.73-14.1 2.1-14.17 9.85-3.5 3.18-6.02 8-7.26 13.51l.23.04a3 3 0 0 1 1.83 1.2c9.8-8 24.9-12.2 36.45-9.6a20.4 20.4 0 0 1 9.14 4.27 30 30 0 0 0-15.37-12.46c-1.52-.54-4.22-1.17-4.22-6.1 0-9.21 10.07-2.05 16.71-12.08.33-.5-.14-.93-.53-.54-2.01 2-6.94 3.39-9.55 3.39a7.6 7.6 0 0 1-3.6-.6 72 72 0 0 1 5.54-9.07c-6.16-6.17 4.21-40.04 31.65-40.04a86 86 0 0 0-1.84-18.55c-.65.16-5.82 1.38-6.06.3-.2-.97 3.81-3.06 5.2-3.74a31 31 0 0 0-2.7-6.9c-23.52 7.4-18.79 26.88-24.52 26.88-3.73 0-6.66-2.9-7.7-3.95-14.05-14.05-7.5-23.34-7.5-42C57.35 4.7 52.46 0 43.45 0S31.21 3.9 31.21 3.9s12.35.4 12.35 13.38c0 13.59-15.3 17.34-15.3 34.57 0 28.7 34.17 28.16 34.17 50.8M10.66 184.6a86 86 0 0 0 4.72 2.87l-.85 2.2c-.32-1.33-1.64-2.06-3.35-3.11l-5.6 8.09a15 15 0 0 0-2.12 3.94s-.91-.59-1.75-1.21L0 196.12c.83-.2 2.27-2.33 3.14-3.5l5.44-7.77c-2.04-1.57-2.83-1.88-4.27-1.95l1.94-1.46s1.86 1.48 4.4 3.16m10.04 6.64c-2.49-1.19-4.44 1.62-5.92 4.7s-2.43 6.4.05 7.58c2.49 1.18 4.45-1.64 5.92-4.73 1.48-3.08 2.43-6.37-.05-7.55m-6.41 13.42c-3.89-1.86-4.4-6.14-2.5-10.14 1.93-4.03 5.6-6.3 9.46-4.44 3.87 1.84 4.4 6.11 2.49 10.14-1.91 4-5.57 6.3-9.45 4.44m17.38-10.45c2.63.74 4.77 1.24 4.77 1.24l-.23 2.35c-.7-1.01-1.03-1.26-3.27-1.83l-2.72 9.14c-.22.84-1.3 4-.95 4.6 0 0-.76-.16-1.98-.5-1.37-.38-2.01-.64-2.01-.64.7-.46 1.59-3.17 1.87-4.27l2.74-9.2c-2.33-.77-2.87-.83-3.98-.31l1.35-2s1.52.6 4.41 1.42m10.84 2.43c2.6.4 5.03.62 5.03.62l.1 2.36c-.97-.86-1.33-1.14-3.9-1.47l-1.47 9.4c-.1.85-.66 4.11-.23 4.66 0 0-.9-.1-2.13-.28s-2-.34-2-.34c.6-.48 1.1-3.57 1.2-4.43l1.53-9.5c-2.22-.45-2.68-.28-3.74.34l.96-2.23s2.07.48 4.65.87m9.6 8.93-.2 6.3c3.32.05 5.58-.16 6.59-1.6l-.5 2.87s-1.84.04-4.52 0c-2.95-.04-5.26-.23-5.26-.23.49-.49.6-3.56.61-4.43l.27-6.19c.01-1.65.17-4.31-.39-4.87 2.4.16 2.1.16 4.3.25 2.87.11 4.5.02 4.5.02l.37 2.37c-1.13-.94-2.81-1.05-5.56-1.06l-.16 5.3 4.23.02c.38 0 .4.21.4.64 0 .41 0 .64-.4.63Zm18.48 1.9c.24 2.3.48 3.94 1 4.24a1.5 1.5 0 0 1-1.1.61 1.8 1.8 0 0 1-1.62-.79l-7.5-8.6.29 5.47c.09.86.19 4.13.72 4.56l-2.5.11c.44-.53.32-3.64.23-4.5l-.35-6.18c-.1-.86-.25-4.27-.8-4.7l2.3-.09 7.69 9.13-.64-5.25c-.1-.87-.56-4-1.08-4.43l1.2-.15c.94-.13 1.28-.2 1.28-.2-.43.54.07 3.75.16 4.61Zm14.09-3.26c.26 1.07.79 3.81 1.58 4.35 0 0-1.2.34-1.91.57-.65.2-2.07.56-2.07.56.33-.59-.42-3.88-.62-4.7l-.71-2.87-4.77 1.17.54 2.92c.16.94.65 4.1 1.3 4.5l-2.06.41c-1.16.24-1.97.37-1.97.37.35-.6-.12-3.53-.27-4.47l-1.16-6.16c-.2-1.14-.74-4.05-1.37-4.39l1.97-.38c1.37-.26 2.03-.44 2.03-.44-.33.69.26 3.47.42 4.45l.37 1.95 4.69-1.14-.51-2c-.28-1.05-.86-3.6-1.51-4.07l1.95-.55c1.3-.37 1.87-.58 1.87-.58-.26.7.46 3.18.76 4.45Zm7.86-4.65-4.13-5.72.29 7.19Zm.84 1-4.65 1.82.17 2.56a10 10 0 0 0 .3 2.12 1 1 0 0 0 .4.45s-.48.18-1.28.44l-1.24.38a4 4 0 0 0 .32-1.97l-.4-12.1a4 4 0 0 0-.25-1.2 2 2 0 0 0-.5-.6 12 12 0 0 1 1.87-1.01c1.07-.45 1.52-.43 2.3.47l6.82 8.47c1.24 1.61 2.34 2.7 3.05 2.91 0 0-.7.33-2 .91-1.32.58-2.19.91-2.19.91a1.5 1.5 0 0 0-.08-1 13 13 0 0 0-1.29-1.87Zm19.49-4.39-1.64 1.12c-.07-.92-1.84-3.2-2.37-3.89l-4-5.23 3.22 10.3a3 3 0 0 1-.57.66 1.36 1.36 0 0 1-1.82-.06l-7.63-6.32 2.67 4.92c.66 1.24 1.91 3.83 2.76 4.09 0 0-.52.28-1.19.6l-1.07.51c.15-.72-1.09-2.87-1.81-4.25l-2.98-5.59c-.9-1.68-1.89-3.4-2.75-3.74l1.81-.88c.79-.39 1.48-.77 1.48-.77l8.6 7.31-3.38-10.35 1.3-.88c.86-.57 1.64-1.14 1.64-1.14.06.92 1.85 3.28 2.5 4.13l3.7 4.76c.79.98 2.25 3.16 3.3 3.4 0 0-.84.67-1.77 1.3M24.93 215c.8.3 1.82.65 1.82.65-.86.63-1.66 3.12-2.17 4.48l-2 5.53c-.53 1.5-1.44 3.68-1.14 4.46l-1.98-.7c-.76-.27-1.2-.41-2-.76.98-.25 1.9-3.5 2.2-4.33l.91-2.58-4.78-2-1.38 2.96c-.45 1.03-1.53 3.35-1.27 4.08 0 0-.85-.34-2.08-.91a33 33 0 0 1-1.78-.85c1.03-.5 1.63-2.16 2.42-3.84l2.5-5.53c.84-1.9 1.6-3.54 1.55-4.62a50 50 0 0 0 3.7 1.7c-.77.3-1.85 3.1-2.43 4.36l-.73 1.56 4.67 1.92.72-1.77c.33-.9 1.49-3.61 1.24-4.54zm9.11 3.9c-2.66-.71-4.03 2.34-4.89 5.58s-1.16 6.59 1.5 7.29 4.05-2.37 4.9-5.6c.85-3.24 1.16-6.58-1.5-7.28m-3.7 14.08c-4.17-1.1-5.5-5.13-4.4-9.33 1.12-4.23 4.27-7.06 8.42-5.97 4.14 1.1 5.49 5.11 4.38 9.33-1.1 4.2-4.24 7.06-8.4 5.97m11.27 1.48a2.4 2.4 0 0 0 .45-.87 36 36 0 0 0 .61-3.62l1.17-9.02c-2.49-.31-3.12-.13-4.2.51l1.01-2.3c.78.17 2.5.35 4.58.62 1.4.17 5.55.55 5.55.55l.14 2.3c-.92-1.06-1.87-1.15-3.94-1.32l-1.16 9.05c-.1.84-.57 3.77-.1 4.63l-2.03-.22c-.72-.07-1.66-.24-2.08-.3m19.8-3.14c.03 2.72-2.18 4.68-5.57 4.63a6.8 6.8 0 0 1-4.56-1.57l.55-2.57a4.6 4.6 0 0 0 3.71 2.86 2.6 2.6 0 0 0 2.88-2.5c.02-1.16-.61-1.85-3.28-3.24-2.55-1.32-3.5-2.64-3.5-4.6 0-2.67 2.32-4.03 5.05-4.03a9 9 0 0 1 4.29 1.09l-.57 2.35c-1.22-1.62-2.32-2.23-3.65-2.24a1.96 1.96 0 0 0-2.23 2.04c.01 1.46 1.62 2.26 3.8 3.48 2.5 1.4 3.06 2.8 3.08 4.3M73.77 223a6 6 0 0 1 .19 1 6 6 0 0 1 0 1 4.5 4.5 0 0 1-1.17 2.63 6 6 0 0 1-4.25 1.73c-.7.05-.88-.17-.92-.67v-.11s-.02-.2.13-.21l.18-.02a3 3 0 0 0 1.97-1.01 4.2 4.2 0 0 0 .72-3.02 3.5 3.5 0 0 0-1.27-2.66 3.3 3.3 0 0 0-2.35-.64s-.34.02-.71.08a.22.22 0 0 0-.2.24l.9 9.35c.08.82.3 3.72.98 4.32 0 0-.77.08-2.22.2a42 42 0 0 1-1.97.11 8 8 0 0 0 .17-3.01l-.7-7.38c-.07-.84-.22-3.74-.9-4.45 0 0 1.84-.27 5.27-.6a6.6 6.6 0 0 1 4.53.92 4 4 0 0 1 1.63 2.2m14 3.01a5.4 5.4 0 0 1-4.15 6.85c-2.37.59-5.79-.28-6.74-4.44l-1.16-4.9c-.3-1.38-.8-3.81-1.6-4.45 0 0 .89-.12 2.28-.39a48 48 0 0 0 2.05-.4c-.37.57.02 2.84.38 4.51l1.48 6.24a3.8 3.8 0 0 0 1.28 2.39 2.3 2.3 0 0 0 1.77.32 2.2 2.2 0 0 0 1.56-1.07 4 4 0 0 0 .07-2.7l-1.66-6.24c-.45-1.72-.98-3.87-1.54-4.23 0 0 .68-.18 1.96-.55a40 40 0 0 0 1.97-.6c-.38.95.53 3.83.72 4.65Zm15.15-1.28a1.4 1.4 0 0 0 .97.09 2 2 0 0 1-.54.93 2.9 2.9 0 0 1-3.08 1 23 23 0 0 1-6.44-4.77.1.1 0 0 1 .06-.14l.14-.07a3.3 3.3 0 0 0 1.5-4.49 3.4 3.4 0 0 0-1.9-1.98 3 3 0 0 0-2.06.11 3 3 0 0 0-.73.4s-.11.08.02.47l2.97 8.48c.45 1.25 1.23 3.68 1.94 4.1 0 0-.8.31-2.02.75s-1.96.64-1.96.64c.25-.94-.68-3.52-.92-4.24l-1.92-5.73c-.48-1.38-1.36-3.86-2.07-4.25a45 45 0 0 0 4.55-1.72 7.2 7.2 0 0 1 4.77-.58 3.4 3.4 0 0 1 1.98 1.42 5 5 0 0 1 .45.83 4 4 0 0 1 .23.84 4 4 0 0 1-.47 2.65 5 5 0 0 1-1.42 1.57 25 25 0 0 0 5.95 3.7" data-source="https://football-logos.cc"/></svg>