<svg xmlns="http://www.w3.org/2000/svg" viewBox="2.5 2.5 495 595"><g data-source="https://football-logos.cc" style="fill:#ecb215;fill-opacity:1"><path d="M527.8 449.8c-3.8.14-8.32.59-15.53 1.28-15.96 1.55-20.4 1.87-29.03.78-5.5-.69-12.94-2.04-13.94-2.03.03 1-1.58 9.95-1.6 10-.48 2.45-.9 6-1.5 12.4-1.91 21.15.48 43.32 6.66 61.85 6.14 18.39 15.68 34.84 27.85 48.1 5.45 5.94 13.46 12.16 19.47 16.72.48.33 7.26 4.42 9.03 4.56 1.76-.14 8.55-4.23 9.03-4.56 6-4.56 14.02-10.78 19.47-16.72 12.17-13.26 21.7-29.71 27.84-48.1 6.19-18.53 8.58-40.7 6.66-61.84-.59-6.42-1.01-9.96-1.5-12.4-.01-.06-1.63-9-1.6-10-.99-.02-8.43 1.33-13.93 2.02-8.63 1.09-13.08.77-29.03-.78-7.44-.72-12.03-1.16-15.91-1.28z" style="fill:#ecac00;fill-opacity:1" transform="matrix(3.88854 0 0 3.87219 -1807.85 -1739.2)"/></g><path d="M239.76 15.02c-70.9 5.92-144.4 17.62-214.2 2.09-9.07 60.72-16.26 122.72-8.9 184.5 12.48 139.74 78.96 279.67 195.31 362.53 7.2 5.13 32.62 20.9 37.64 20.9 5.32 0 30.38-15.24 36.67-19.63C429.6 465.36 494.88 283.49 485.5 112.74c-2-32.03-4.3-65.9-12.62-95.88-63.47 14.61-129.48 6.26-193.77-.53a378 378 0 0 0-39.36-1.31" style="fill:#8b2a1f;fill-opacity:1"/><g style="stroke:#e9aa0f;stroke-opacity:1"><path d="M388.96 498.02v18.13h5.16v-6.92h4.98v-4.13h-5.07v-2.86h9.2v-4.22z" style="fill:#f8fbfd;fill-opacity:1;stroke:#ecac00;stroke-width:1.08155334;stroke-miterlimit:4;stroke-opacity:1;stroke-dasharray:none" transform="matrix(3.88854 0 0 3.87219 -1189.33 -1739.2)"/><path d="M413.25 498.18c-4.1.4-7.31 4.27-7.31 8.94 0 4.94 3.58 8.97 8 8.97a7.9 7.9 0 0 0 6.85-4.27l-4.03-1.02q-.2.2-.43.36c-6.19 3.22-7.53-7.95-2.7-8.6l.13-.04h.06c1.24-.05 2.18.18 2.9.95l4.04-1.11a7.9 7.9 0 0 0-6.82-4.18z" style="fill:#f8fbfd;fill-opacity:1;stroke:#ecac00;stroke-width:1.05508757;stroke-miterlimit:4;stroke-opacity:1;stroke-dasharray:none" transform="matrix(3.88854 0 0 3.87219 -1189.33 -1739.2)"/></g><path d="M243.25 29.58q-2.91.02-5.82.08-1.51.04-3.04.12C169.28 35.08 102 43.89 37.66 34.15A625 625 0 0 0 29.27 155h441.56A563 563 0 0 0 460.3 33.16c-41.92 10.56-87.12 4.31-130.03 1.7-28.97-2.42-57.93-5.48-87.02-5.28" style="fill:#fffbff;fill-opacity:1"/><path d="M29.17 155h441.65v7.68H29.17z" style="opacity:.95999995;fill:#5b8cc1;fill-opacity:1;fill-rule:nonzero;stroke:none"/><path d="M56.26 57.87v21.41H75.7v61h18.82v-61h20.07v-21.4z" style="fill:#8b2a1f;fill-opacity:1;stroke:#ecac00;stroke-width:4.10655785;stroke-miterlimit:4;stroke-opacity:1;stroke-dasharray:none" transform="translate(0 -2.31)"/><path d="M270.01 57.5h18.96v82.9H270zm31.23-.27v82.93h18.71v-37.22l27.95 36.86.49.6h18.47V57.23h-19.44v41.4l-30.63-41.28v-.12zm-104.99-.3v83.47h18.82v-30.98h12.29l11.66 30.98h22.11l-13.84-35.72c9.1-2.76 11.18-12.34 11.18-23.58 0-12.72-8.62-23.15-19.57-24.17zm18.78 18.11h20.1c4.29.13 7.66 2.81 7.66 8.05s-3.37 8.3-7.66 8.42h-20.1z" data-source="https://football-logos.cc" style="fill:#8b2a1f;fill-opacity:1;stroke:#ecac00;stroke-width:3.85871792;stroke-miterlimit:4;stroke-opacity:1;stroke-dasharray:none" transform="translate(0 -2.31)"/><path d="M151.73 56.63c-18.1 1.37-32.57 19.55-32.57 41.76 0 23.1 15.65 41.88 34.76 41.88s34.5-18.79 34.5-41.88-15.4-41.77-34.5-41.77h-.86c-.43.02-.9-.03-1.33 0zm.85 21.69h.12c19.56-.85 21.48 38.07 2.92 42.4-20.7 1.98-23.55-39.18-3.04-42.4zm254.46-21.7C388.93 58 374.47 76.2 374.47 98.4c0 23.1 15.64 41.88 34.75 41.88s34.51-18.79 34.51-41.88-15.4-41.77-34.5-41.77h-.86c-.44.02-.9-.03-1.34 0zm.84 21.7h.13c19.56-.85 21.48 38.07 2.91 42.4-20.7 1.98-23.55-39.18-3.04-42.4z" style="fill:#8b2a1f;fill-opacity:1;stroke:#ecac00;stroke-width:4.11961699;stroke-miterlimit:4;stroke-opacity:1;stroke-dasharray:none" transform="translate(0 -2.31)"/><path d="M-701.36 393.08c-3.49.3-4.85.62-6.59 1.47-1.61.78-3.54 1.67-5.05 3.45-2.81 3.31-3.46 4.56-3.5 9.43a9.6 9.6 0 0 0 2.71 6.54c2.25 2.3 4.6 3.39 9.35 3.86 3.4.33 6.87-.3 8.1-.98a34 34 0 0 1 1.5-.76c.56-.26.74-.46.78-.44.14.08-.19 1.22-.29 1.5-.3.9-1.38 2.41-3.18 4.34a19 19 0 0 1-8 5.03c-1.6.51-4.26 1.38-4.83 1.55-.06.02-.06-.03-.05.04l.6 5.05c0 .01 1.53-.1 3.28-.43 8.86-1.62 16.38-8.12 18.46-15.94 1.73-8.71 2.42-18.76-7.25-22.53a18 18 0 0 0-6.04-1.18m.06 6.46a10 10 0 0 1 5.89 1.73c2.73 1.94 2.98 6.61.48 8.85-5.17 4.6-15.38 1.98-15.38-3.97 0-3.9 4.45-6.58 9.01-6.6m35.29-5.98c-5.09 0-10.15 2.44-12.65 7.34-2.2 4.3-3.03 15.74-1.48 20.49 1.6 4.9 4.78 8.8 8.55 10.54 6.49 2.96 14.2.06 18.23-6.87 2.75-4.72 2.87-19.18.2-24.16-2.63-4.9-7.76-7.34-12.85-7.34m.05 6.43c2.43 0 4.86.93 6.22 2.77 3.98 5.39 3.58 17.69-.7 22.03-3.21 3.24-7.54 3.15-10.87-.22-4.47-4.52-4.93-16.3-.86-21.81 1.36-1.84 3.78-2.77 6.21-2.77" style="fill:#fff;fill-opacity:1" transform="matrix(.8195 0 0 .81605 655.59 -133.04)"/><path d="M-729.5 393.4h6.1v38.89h-6.1z" style="fill:#fff;fill-opacity:1;stroke:none" transform="matrix(.8195 0 0 .81605 655.59 -133.04)"/><path d="M-630.76 433.62c3.49-.3 4.86-.62 6.6-1.47 1.6-.78 3.53-1.67 5.04-3.45 2.82-3.31 3.46-4.56 3.51-9.43a9.6 9.6 0 0 0-2.72-6.54c-2.24-2.3-4.6-3.39-9.34-3.86-3.4-.33-6.88.3-8.11.98-.62.33-1.18.6-1.5.76-.56.26-.74.46-.78.44-.14-.08.2-1.22.3-1.5.3-.9 1.38-2.41 3.18-4.34a19 19 0 0 1 8-5.03c1.6-.51 4.25-1.38 4.82-1.55.06-.02.06.03.05-.04l-.6-5.05c0-.01-1.53.1-3.28.43-8.85 1.62-16.37 8.12-18.46 15.94-1.72 8.71-2.42 18.76 7.25 22.53 1.72.67 3.7 1.12 6.04 1.18m-.06-6.46c-2.07.01-4.17-.52-5.89-1.73-2.73-1.94-2.98-6.61-.47-8.85 5.16-4.6 15.37-1.98 15.37 3.97 0 3.9-4.45 6.58-9.01 6.6" style="fill:#fff;fill-opacity:1" transform="matrix(.8195 0 0 .81605 655.59 -133.04)"/><path d="m273.71 520.61-2.19-1.95 7.46-11.56c4.1-6.36 8.18-13.15 9.07-15.1s3.56-5.48 5.93-7.85c4.92-4.88 9.87-14.29 10.51-19.96.54-4.71-1.01-7.36-12.92-22-14.7-18.1-19.9-26.66-21.86-36.02-1.8-8.61 1.65-20.66 8.53-29.78l4.16-5.5-4.62 4.47c-9.2 8.92-12.72 19.88-10.08 31.44 2.35 10.25 2.34 10.28-2.52 10.54-7.05.38-11.92-3.85-12.97-11.3-.46-3.25-.55-2.87-.65 2.68-.2 11.56-3.7 12.94-32.77 12.94h-17.13l-2.56 2.14c-1.66 1.39-2.56 2.9-2.57 4.33-.02 3.61-.93 4.23-6.04 4.1-5.7-.16-7.72 1.29-8.7 6.22-1.2 6-9.47 10.45-19.43 10.45-3.97 0-8.9-1.9-9.6-3.7-.65-1.67 7.15-11.94 15.48-20.4a2715 2715 0 0 0 11.66-11.87c8.05-8.23 9.11-8.57 27.3-8.59l15.24-.02-.65-3.92c-1.13-6.78-.56-26.77.92-32.5 2.36-9.13 4.93-10.41 17.23-8.6 4.26.64 7.83 1.08 7.93.98.66-.66-5.5-10.65-11.18-18.11-7.04-9.24-10.6-15.52-11.56-20.33-.5-2.48-.38-2.75.92-2.26 3.6 1.38 16.28 3.02 23.28 3.02 9.42 0 15.08-1.56 18.38-5.05l2.46-2.6-3.69 2.38c-3.57 2.3-4 2.38-13.72 2.3-12.2-.11-15.38-1.01-41.85-11.81-20.59-8.4-36.87-14.08-40.42-14.1a9.3 9.3 0 0 0-7.35 3.54c-.88 1.1-2.38 1.73-4.16 1.76l-2.79.05-.06 5.37c-.09 7.44-.66 8.65-5.17 10.78-8.8 4.15-17.88 5.38-20.5 2.78-1.84-1.83-1.94-1.57 4.76-11.98 3.34-5.19 6.93-11.19 7.97-13.34 2.53-5.18 8.22-10.07 13.22-11.35 2.17-.55 7.9-1.2 12.72-1.44 10.6-.53 16.93.6 35.97 6.43 7.34 2.25 13.53 3.9 13.74 3.7.64-.64-7.16-3.71-14.8-5.84l-10.83-3.03-3.74-1.07 6.5-.24c5.76-.21 23.25 1.53 28.85 2.88 2 .48 2.03.43.7-1.07-2.4-2.7-2.57-5.47-.68-10.49.98-2.58 2.1-4.7 2.52-4.7 2.12 0 6.7-5.4 7.86-9.3 1.96-6.56 1.5-7.11-1.3-1.55-3.49 6.9-6.42 8.96-14.93 10.44-7.94 1.39-10.8 2.9-10.8 5.73 0 3.94-8.07 4.77-12.34 1.27-2.55-2.1-2.04-4.4 1.1-4.94 2.87-.49 3.61-2.5 1.66-4.44-2.65-2.63-6.82 1.73-5.92 6.2.38 1.88.19 2.37-.95 2.36-5.86-.05-6.55-10.12-2.1-30.9 1.63-7.59 1.9-10.2 1.18-11.34-1.53-2.43-1.07-7.24 1.33-13.96l2.26-6.34-3-3.29a23 23 0 0 1-4.1-6.5c-1.53-4.34-1.3-13.64.5-19.93 1.63-5.73 2.9-7.35 2.9-3.69 0 5.03 2.56 11.07 6.43 15.16 2.08 2.22 4.08 4.03 4.43 4.03s.9-2.14 1.21-4.75 1.22-6.79 2-9.29l1.42-4.54 1.07 5.35c1.35 6.69 3.22 10.33 7.3 14.17 5.25 4.94 7.65 5.7 23.49 7.43 26.67 2.9 37.9 6.83 47.94 16.79 10.37 10.29 12.76 17.24 15.34 44.6 2.1 22.28 5.55 50.02 7.19 57.77 4.82 22.76 33.76 52.13 44.03 44.67 3.77-2.73 1.03-10.6-8.47-24.26-5.83-8.39-14.43-23.23-14.43-24.89 0-2.87 20.8 24.7 29.59 39.22 8.29 13.7 10.13 20.38 7.55 27.44-2.34 6.41-11.2 11.65-17.9 10.59l-3.07-.49-.97 8.05c-1.75 14.5-4.23 18.55-19.99 32.64-5.25 4.7-4.63 7.4 3.46 14.88l4.06 3.75-.5 4.26c-.57 4.72-3.38 9.11-7.06 11.02-5.3 2.75-10.12 10.68-11.83 19.47-1.34 6.85-2.1 8.07-6.2 9.98-2.07.97-3.8 2-3.86 2.29s-.2 3.29-.32 6.66c-.26 7.12-.19 7.03-9.48 10.88-8.75 3.62-16.36 4.2-19.43 1.45m48.18-70.91c-3.94-4.35-6-8.87-5.29-11.59.6-2.25-.4-1.98-3.14.85l-2.36 2.45 2 3c1.54 2.3 10.69 9.33 12.27 9.43.15 0-1.41-1.86-3.48-4.14m12.35-28.27c3.56-4.14 6.1-11.75 6.77-20.37l.5-6.23-2.7 2.59c-2.55 2.45-2.7 2.92-2.83 9.08-.17 7.83-2 12.32-7.75 19.1l-3.98 4.69 3.52-2.72a54 54 0 0 0 6.47-6.14m-6.99-54.67c-5.03-5.42-10.17-13.66-16.28-26.13-5.88-11.98-7.73-19.03-9.75-37.01-.56-5-1.36-9.1-1.8-9.1-1.25 0-.04 28.59 1.43 33.78 3.77 13.24 15.64 31.7 25.06 38.95 5.35 4.11 5.55 4.04 1.34-.49M201 234.83c4.39-.67 5.54-1.86 5.54-5.74v-3.32l-1.87 2.8a15 15 0 0 1-5.4 4.43c-1.92.89-3.7 2.1-3.92 2.7-.31.79-.03.88 1.01.35.8-.4 2.88-.95 4.64-1.22m29.22-13.77c11.23-1.15 14.74-3.3 12.13-7.4-.63-1-1.08-.81-2.54 1.03-1.72 2.17-6.3 3.9-13.37 5.07-1.64.27-3.7 1.07-4.57 1.78s-1.17 1.08-.65.82 4.58-.84 9-1.3m-14.53-9.5c0-.87-.9-1.24-3.12-1.24-3.82-.01-10.48-1.72-14.24-3.65-1.53-.79-2.54-1.02-2.23-.53.65 1.04 6.04 3.88 10.4 5.47 4.22 1.54 9.19 1.52 9.19-.05m-41.13 129c-1.24-4.66-3.4-11.8-4.8-15.87-3.78-11.09-2.47-20.13 3.77-25.91l2.1-1.95 4.43 1.44c2.44.79 5.47 1.96 6.75 2.6l2.32 1.16-1.75 2.2c-1.29 1.63-1.69 3.16-1.52 5.83.17 2.7-.13 3.81-1.2 4.4-2.26 1.26-1.77 4.6.87 6 1.26.66 3.33 2.52 4.6 4.14 2.17 2.74 2.26 3.18 1.4 6.37-2.72 10-8.28 18.04-12.5 18.04-2.1 0-2.32-.4-4.47-8.46m186.9-4.7c-1.21-2.58-3.85-5.72-7.4-8.8-8.97-7.83-11.02-15-5.73-20.08 3.41-3.29 5-6.74 4.33-9.4-1.12-4.42-8.67-9.61-17.08-11.75-6.31-1.6-9.9-1.1-13.47 1.88l-2.62 2.18 1.71-3.33c4.25-8.26 14.22-9.54 30.48-3.92 18.56 6.42 23.14 17.12 15.25 35.62-2.43 5.7-2.74 7.27-2.74 14.05 0 4.2-.18 7.62-.41 7.6s-1.27-1.84-2.31-4.05m-.48-13.93c.54-1.67 1.94-5.27 3.11-8 4.87-11.3 1.99-19.91-8.4-25.08-4.86-2.41-5.1-2.18-1.01.94 7 5.34 8.5 13.07 4.4 22.5-2.95 6.76-3.36 9.99-1.51 12.01 1.74 1.91 2.11 1.66 3.4-2.37" data-source="https://football-logos.cc" style="fill:#fff"/></svg>