<svg xmlns="http://www.w3.org/2000/svg" viewBox="0 0 56.69 67.72"><defs data-source="https://football-logos.cc"><linearGradient id="a" x2="1" y1=".5" y2=".5" gradientUnits="objectBoundingBox"><stop offset="0" stop-color="#c49b74"/><stop offset=".37" stop-color="#b88d56"/><stop offset=".48" stop-color="#c5a678"/><stop offset=".72" stop-color="#f7d8ba"/><stop offset=".93" stop-color="#c5a577"/><stop offset="1" stop-color="#b88f56"/></linearGradient></defs><path fill="#fff" d="M54.87 16.78 28.34 67.11 1.82 16.78 12.39 1.2h31.92Z"/><path fill="#c5a577" d="m29.3 43.49.1-.14.12-.14.12-.14.23-.27.13-.13.12-.13q.25-.25.52-.49l.55-.45.28-.22.14-.1.07-.05.03-.02.02-.01-.97-1.13-.07.09-.07.07-.13.16-.24.3a13 13 0 0 0-.97 1.46l-.1.18-.26.52-.08.17-.07.18-.08.18-.03.08.52-3.37a3.3 3.3 0 0 0-.63-2.47l-.21-.28-.22.28a3.3 3.3 0 0 0-.63 2.47l.52 3.37-.03-.08-.08-.18-.07-.18-.08-.17-.09-.18-.17-.34-.1-.17a13 13 0 0 0-.97-1.46l-.24-.31-.13-.16-.06-.07-.08-.09-.98 1.12h.01l.02.02.04.02.07.05.14.1.28.22q.28.22.54.45s.35.33.52.5l.13.12.12.13.24.27.11.14.11.14.11.14.11.15q.07.08.13.2h-.05l-.4.1-.2.08-.2.1.2.1.2.07.4.1.4.06.06.12.08.17.06.17a4 4 0 0 1 .16.61l.01.1.02-.1a4 4 0 0 1 .15-.6l.07-.18.07-.17.06-.12.46-.06.4-.1.2-.07.2-.1-.2-.1-.2-.08-.4-.1-.1-.01.13-.19z"/><path fill="#140e0b" d="M30.2 34.97v-5.69h-3.7v5.7a2.5 2.5 0 0 1 1.84-.66 2.6 2.6 0 0 1 1.87.65m-15-30.9a.18.18 0 0 1 .21-.2h.37q.2 0 .2.2v1.6h-.78Zm-.5 3.12h.43a.1.1 0 0 0 .07-.08V6.2H16v.91a.07.07 0 0 0 .08.08h.45a.07.07 0 0 0 .08-.08V4.07a.64.64 0 0 0-.68-.73h-.63a.64.64 0 0 0-.67.73V7.1a.1.1 0 0 0 .07.08m5.12 0h.44a.1.1 0 0 0 .07-.08V4.94h.04l.87 2.17a.1.1 0 0 0 .11.08h.31q.08 0 .08-.08V3.45q0-.08-.08-.08h-.43q-.07 0-.07.08V5.5h-.04l-.82-2.05a.1.1 0 0 0-.11-.07h-.37a.1.1 0 0 0-.07.07v3.66a.1.1 0 0 0 .07.08m5.73.03h.6a.64.64 0 0 0 .68-.73V5.34a.1.1 0 0 0-.08-.07h-.77a.1.1 0 0 0-.08.07l-.03.35q0 .06.08.07h.29v.73a.18.18 0 0 1-.2.2h-.35a.18.18 0 0 1-.2-.2V4.07a.18.18 0 0 1 .2-.2h.34a.18.18 0 0 1 .21.2v.43a.06.06 0 0 0 .08.08l.43-.05a.1.1 0 0 0 .08-.08v-.38a.64.64 0 0 0-.68-.73h-.6a.64.64 0 0 0-.67.73v2.42a.64.64 0 0 0 .67.73m4.5-.03h1.6a.1.1 0 0 0 .08-.07l.05-.38a.06.06 0 0 0-.07-.08h-1.13V5.52h.75a.1.1 0 0 0 .09-.07l.05-.38A.06.06 0 0 0 31.4 5h-.82V3.9h1.07a.1.1 0 0 0 .08-.07l.05-.37q0-.08-.07-.08h-1.67a.1.1 0 0 0-.07.08V7.1a.1.1 0 0 0 .07.08m5.49-3.29h.53a.18.18 0 0 1 .21.21v1.36a.18.18 0 0 1-.2.2h-.54Zm-.54 3.3h.46a.07.07 0 0 0 .08-.08V6.2h.37l.44.93a.1.1 0 0 0 .1.06h.47q.09-.01.05-.08l-.48-.98v-.05a.6.6 0 0 0 .4-.67v-1.3a.64.64 0 0 0-.68-.74H35a.07.07 0 0 0-.08.08V7.1a.07.07 0 0 0 .08.08m5.79.03h.68c.41 0 .67-.23.67-.73v-.77c0-.5-.26-.73-.67-.73h-.51q-.21 0-.21-.2v-.72q0-.2.2-.2h.34q.21 0 .21.2v.38a.06.06 0 0 0 .08.07l.43-.04a.1.1 0 0 0 .08-.09v-.32c0-.5-.27-.73-.67-.73h-.6c-.41 0-.67.23-.67.73v.7c0 .5.26.74.67.74h.5q.22 0 .22.2v.78q0 .2-.21.2h-.42q-.2 0-.2-.2v-.45a.06.06 0 0 0-.09-.07L40.2 6a.1.1 0 0 0-.08.09v.39c0 .5.26.73.67.73M14.02 26.64h5.51a1.7 1.7 0 0 0 1.68-1.69V22a2.2 2.2 0 0 0-.66-1.58l-5.93-5.9a.4.4 0 0 1-.13-.3v-2.2a.13.13 0 0 1 .13-.13h3.76a.13.13 0 0 1 .14.13v2.66h2.69v-3.05a2.2 2.2 0 0 0-2.22-2.22h-4.97a2.2 2.2 0 0 0-2.22 2.22s0 2.7 0 2.92a1.7 1.7 0 0 0 .5 1.19l6.21 6.19v2.1a.13.13 0 0 1-.13.14h-3.76a.14.14 0 0 1-.14-.14V21.4H11.8v3.03a2.2 2.2 0 0 0 2.22 2.22m24.11-14.62a.13.13 0 0 1 .14-.13h3.81a.13.13 0 0 1 .13.13V24a.2.2 0 0 1-.17.17h-3.72a.2.2 0 0 1-.17-.17Zm-.46 14.62h5a2.2 2.2 0 0 0 2.22-2.22l.01-12.77a2.2 2.2 0 0 0-2.22-2.22l-5.01-.01a2.2 2.2 0 0 0-2.23 2.22l.01 12.78a2.2 2.2 0 0 0 2.22 2.22M23.7 24.4a2.2 2.2 0 0 0 2.22 2.22l5 .01a2.2 2.2 0 0 0 2.22-2.22V21.4h-2.7V24a.2.2 0 0 1-.16.18h-3.72a.2.2 0 0 1-.17-.17l-.01-11.98a.13.13 0 0 1 .13-.13h3.82a.13.13 0 0 1 .13.13v2.66h2.7v-2.96a2.3 2.3 0 0 0-2.32-2.3h-4.93a2.2 2.2 0 0 0-2.22 2.22Z" data-source="https://football-logos.cc"/><path fill="url(#a)" d="M8.83 23.64 19.4 8.05h31.92l10.56 15.6-26.53 50.32ZM18.8 6.86 7.01 23.64 35.35 74.6 63.7 23.64 51.91 6.86Z" transform="translate(-7.01 -6.86)"/><path fill="#140e0b" d="M53.1 16.78 46 7.64l4.85 9.14-5.95 12.5h-3.57v7.49l-3.7 7.8V29.29H33.9v23.08l-3.71 7.8v-9.83a1.86 1.86 0 1 0-3.71 0v9.8l-3.72-7.8V29.28h-3.7v15.26l-3.72-7.8v-7.45H11.8l-5.95-12.5 4.84-9.15-7.09 9.14L28.36 65.1Z" data-source="https://football-logos.cc"/></svg>